<?xml version="1.0" encoding="UTF-8" standalone="no"?>
<!DOCTYPE svg PUBLIC "-//W3C//DTD SVG 1.1//EN"
 "http://www.w3.org/Graphics/SVG/1.1/DTD/svg11.dtd">
<!-- Generated by graphviz version 2.40.1 (20161225.0304)
 -->
<!-- Title: dependencies Pages: 1 -->
<svg width="1796pt" height="211pt"
 viewBox="0.00 0.00 1796.00 211.00" xmlns="http://www.w3.org/2000/svg" xmlns:xlink="http://www.w3.org/1999/xlink">
<g id="graph0" class="graph" transform="scale(1 1) rotate(0) translate(4 207)">
<title>dependencies</title>
<polygon fill="#ffffff" stroke="transparent" points="-4,4 -4,-207 1792,-207 1792,4 -4,4"/>
<text text-anchor="start" x="873.0091" y="-42.4" font-family="sans-serif" font-weight="bold" font-size="14.00" fill="#000000">Legend</text>
<polygon fill="#ffffb3" stroke="transparent" points="660,-10 660,-30 680,-30 680,-10 660,-10"/>
<text text-anchor="start" x="683.629" y="-15.4" font-family="sans-serif" font-size="14.00" fill="#000000"> &#160;Declarations</text>
<polygon fill="#8dd3c7" stroke="transparent" points="773,-10 773,-30 793,-30 793,-10 773,-10"/>
<text text-anchor="start" x="796.7251" y="-15.4" font-family="sans-serif" font-size="14.00" fill="#000000"> &#160;Module</text>
<polygon fill="#80b1d3" stroke="transparent" points="859,-10 859,-30 879,-30 879,-10 859,-10"/>
<text text-anchor="start" x="882.7812" y="-15.4" font-family="sans-serif" font-size="14.00" fill="#000000"> &#160;Bootstrap</text>
<polygon fill="#fdb462" stroke="transparent" points="956,-10 956,-30 976,-30 976,-10 956,-10"/>
<text text-anchor="start" x="979.6732" y="-15.4" font-family="sans-serif" font-size="14.00" fill="#000000"> &#160;Providers</text>
<polygon fill="#fb8072" stroke="transparent" points="1052,-10 1052,-30 1072,-30 1072,-10 1052,-10"/>
<text text-anchor="start" x="1075.7258" y="-15.4" font-family="sans-serif" font-size="14.00" fill="#000000"> &#160;Exports</text>
<g id="clust1" class="cluster">
<title>cluster_AnalyticsModule</title>
<polygon fill="none" stroke="#000000" stroke-dasharray="1,5" points="8,-70 8,-195 1780,-195 1780,-70 8,-70"/>
</g>
<g id="clust2" class="cluster">
<title>cluster_AnalyticsModule_declarations</title>
<polygon fill="none" stroke="#000000" points="492,-78 492,-130 1772,-130 1772,-78 492,-78"/>
</g>
<g id="clust11" class="cluster">
<title>cluster_AnalyticsModule_imports</title>
<polygon fill="none" stroke="#000000" points="194,-78 194,-130 484,-130 484,-78 194,-78"/>
</g>
<g id="clust14" class="cluster">
<title>cluster_AnalyticsModule_providers</title>
<polygon fill="none" stroke="#000000" points="16,-78 16,-130 186,-130 186,-78 16,-78"/>
</g>
<!-- AnalyticsComponent -->
<g id="node1" class="node">
<title>AnalyticsComponent</title>
<polygon fill="#ffffb3" stroke="#000000" points="1764.4846,-122 1629.5154,-122 1629.5154,-86 1764.4846,-86 1764.4846,-122"/>
<text text-anchor="middle" x="1697" y="-99.8" font-family="Times,serif" font-size="14.00" fill="#000000">AnalyticsComponent</text>
</g>
<!-- AnalyticsModule -->
<g id="node9" class="node">
<title>AnalyticsModule</title>
<polygon fill="#8dd3c7" stroke="#000000" points="941.7022,-187 938.7022,-191 917.7022,-191 914.7022,-187 828.2978,-187 828.2978,-151 941.7022,-151 941.7022,-187"/>
<text text-anchor="middle" x="885" y="-164.8" font-family="Times,serif" font-size="14.00" fill="#000000">AnalyticsModule</text>
</g>
<!-- AnalyticsComponent&#45;&gt;AnalyticsModule -->
<g id="edge1" class="edge">
<title>AnalyticsComponent&#45;&gt;AnalyticsModule</title>
<path fill="none" stroke="#000000" d="M1697,-122.0908C1697,-145.1328 1697,-182 1697,-182 1697,-182 951.7755,-182 951.7755,-182"/>
<polygon fill="#000000" stroke="#000000" points="951.7756,-178.5001 941.7755,-182 951.7755,-185.5001 951.7756,-178.5001"/>
</g>
<!-- BarChartComponent -->
<g id="node2" class="node">
<title>BarChartComponent</title>
<polygon fill="#ffffb3" stroke="#000000" points="1611.1471,-122 1478.8529,-122 1478.8529,-86 1611.1471,-86 1611.1471,-122"/>
<text text-anchor="middle" x="1545" y="-99.8" font-family="Times,serif" font-size="14.00" fill="#000000">BarChartComponent</text>
</g>
<!-- BarChartComponent&#45;&gt;AnalyticsModule -->
<g id="edge2" class="edge">
<title>BarChartComponent&#45;&gt;AnalyticsModule</title>
<path fill="none" stroke="#000000" d="M1545,-122.2843C1545,-143.3211 1545,-175 1545,-175 1545,-175 951.8425,-175 951.8425,-175"/>
<polygon fill="#000000" stroke="#000000" points="951.8425,-171.5001 941.8425,-175 951.8424,-178.5001 951.8425,-171.5001"/>
</g>
<!-- BubbleChartComponent -->
<g id="node3" class="node">
<title>BubbleChartComponent</title>
<polygon fill="#ffffb3" stroke="#000000" points="1460.3766,-122 1307.6234,-122 1307.6234,-86 1460.3766,-86 1460.3766,-122"/>
<text text-anchor="middle" x="1384" y="-99.8" font-family="Times,serif" font-size="14.00" fill="#000000">BubbleChartComponent</text>
</g>
<!-- BubbleChartComponent&#45;&gt;AnalyticsModule -->
<g id="edge3" class="edge">
<title>BubbleChartComponent&#45;&gt;AnalyticsModule</title>
<path fill="none" stroke="#000000" d="M1384,-122.1061C1384,-141.3391 1384,-169 1384,-169 1384,-169 951.7558,-169 951.7558,-169"/>
<polygon fill="#000000" stroke="#000000" points="951.7559,-165.5001 941.7558,-169 951.7558,-172.5001 951.7559,-165.5001"/>
</g>
<!-- CountersComponent -->
<g id="node4" class="node">
<title>CountersComponent</title>
<polygon fill="#ffffb3" stroke="#000000" points="1289.8795,-122 1158.1205,-122 1158.1205,-86 1289.8795,-86 1289.8795,-122"/>
<text text-anchor="middle" x="1224" y="-99.8" font-family="Times,serif" font-size="14.00" fill="#000000">CountersComponent</text>
</g>
<!-- CountersComponent&#45;&gt;AnalyticsModule -->
<g id="edge4" class="edge">
<title>CountersComponent&#45;&gt;AnalyticsModule</title>
<path fill="none" stroke="#000000" d="M1224,-122.0225C1224,-139.3734 1224,-163 1224,-163 1224,-163 951.741,-163 951.741,-163"/>
<polygon fill="#000000" stroke="#000000" points="951.741,-159.5001 941.741,-163 951.7409,-166.5001 951.741,-159.5001"/>
</g>
<!-- CounterHeaderComponent -->
<g id="node5" class="node">
<title>CounterHeaderComponent</title>
<polygon fill="#ffffb3" stroke="#000000" points="1140.3459,-122 973.6541,-122 973.6541,-86 1140.3459,-86 1140.3459,-122"/>
<text text-anchor="middle" x="1057" y="-99.8" font-family="Times,serif" font-size="14.00" fill="#000000">CounterHeaderComponent</text>
</g>
<!-- CounterHeaderComponent&#45;&gt;AnalyticsModule -->
<g id="edge5" class="edge">
<title>CounterHeaderComponent&#45;&gt;AnalyticsModule</title>
<path fill="none" stroke="#000000" d="M1057,-122.2396C1057,-137.5706 1057,-157 1057,-157 1057,-157 951.7959,-157 951.7959,-157"/>
<polygon fill="#000000" stroke="#000000" points="951.796,-153.5001 941.7959,-157 951.7959,-160.5001 951.796,-153.5001"/>
</g>
<!-- DashboardComponent -->
<g id="node6" class="node">
<title>DashboardComponent</title>
<polygon fill="#ffffb3" stroke="#000000" points="955.9734,-122 814.0266,-122 814.0266,-86 955.9734,-86 955.9734,-122"/>
<text text-anchor="middle" x="885" y="-99.8" font-family="Times,serif" font-size="14.00" fill="#000000">DashboardComponent</text>
</g>
<!-- DashboardComponent&#45;&gt;AnalyticsModule -->
<g id="edge6" class="edge">
<title>DashboardComponent&#45;&gt;AnalyticsModule</title>
<path fill="none" stroke="#000000" d="M885,-122.1061C885,-122.1061 885,-140.991 885,-140.991"/>
<polygon fill="#000000" stroke="#000000" points="881.5001,-140.9909 885,-150.991 888.5001,-140.991 881.5001,-140.9909"/>
</g>
<!-- GraphChartComponent -->
<g id="node7" class="node">
<title>GraphChartComponent</title>
<polygon fill="#ffffb3" stroke="#000000" points="795.9172,-122 648.0828,-122 648.0828,-86 795.9172,-86 795.9172,-122"/>
<text text-anchor="middle" x="722" y="-99.8" font-family="Times,serif" font-size="14.00" fill="#000000">GraphChartComponent</text>
</g>
<!-- GraphChartComponent&#45;&gt;AnalyticsModule -->
<g id="edge7" class="edge">
<title>GraphChartComponent&#45;&gt;AnalyticsModule</title>
<path fill="none" stroke="#000000" d="M722,-122.2396C722,-137.5706 722,-157 722,-157 722,-157 817.9905,-157 817.9905,-157"/>
<polygon fill="#000000" stroke="#000000" points="817.9905,-160.5001 827.9905,-157 817.9905,-153.5001 817.9905,-160.5001"/>
</g>
<!-- PieChartComponent -->
<g id="node8" class="node">
<title>PieChartComponent</title>
<polygon fill="#ffffb3" stroke="#000000" points="630.323,-122 499.677,-122 499.677,-86 630.323,-86 630.323,-122"/>
<text text-anchor="middle" x="565" y="-99.8" font-family="Times,serif" font-size="14.00" fill="#000000">PieChartComponent</text>
</g>
<!-- PieChartComponent&#45;&gt;AnalyticsModule -->
<g id="edge8" class="edge">
<title>PieChartComponent&#45;&gt;AnalyticsModule</title>
<path fill="none" stroke="#000000" d="M565,-122.0225C565,-139.3734 565,-163 565,-163 565,-163 818.1591,-163 818.1591,-163"/>
<polygon fill="#000000" stroke="#000000" points="818.1592,-166.5001 828.1591,-163 818.1591,-159.5001 818.1592,-166.5001"/>
</g>
<!-- AnalyticsRoutingModule -->
<g id="node10" class="node">
<title>AnalyticsRoutingModule</title>
<polygon fill="#8dd3c7" stroke="#000000" points="476.3201,-122 473.3201,-126 452.3201,-126 449.3201,-122 317.6799,-122 317.6799,-86 476.3201,-86 476.3201,-122"/>
<text text-anchor="middle" x="397" y="-99.8" font-family="Times,serif" font-size="14.00" fill="#000000">AnalyticsRoutingModule</text>
</g>
<!-- AnalyticsRoutingModule&#45;&gt;AnalyticsModule -->
<g id="edge9" class="edge">
<title>AnalyticsRoutingModule&#45;&gt;AnalyticsModule</title>
<path fill="none" stroke="#000000" d="M397,-122.1061C397,-141.3391 397,-169 397,-169 397,-169 818.0651,-169 818.0651,-169"/>
<polygon fill="#000000" stroke="#000000" points="818.0652,-172.5001 828.0651,-169 818.0651,-165.5001 818.0652,-172.5001"/>
</g>
<!-- SharedModule -->
<g id="node11" class="node">
<title>SharedModule</title>
<polygon fill="#8dd3c7" stroke="#000000" points="300.4231,-122 297.4231,-126 276.4231,-126 273.4231,-122 201.5769,-122 201.5769,-86 300.4231,-86 300.4231,-122"/>
<text text-anchor="middle" x="251" y="-99.8" font-family="Times,serif" font-size="14.00" fill="#000000">SharedModule</text>
</g>
<!-- SharedModule&#45;&gt;AnalyticsModule -->
<g id="edge10" class="edge">
<title>SharedModule&#45;&gt;AnalyticsModule</title>
<path fill="none" stroke="#000000" d="M251,-122.2843C251,-143.3211 251,-175 251,-175 251,-175 818.1788,-175 818.1788,-175"/>
<polygon fill="#000000" stroke="#000000" points="818.1788,-178.5001 828.1788,-175 818.1787,-171.5001 818.1788,-178.5001"/>
</g>
<!-- AnalyticsService -->
<g id="node12" class="node">
<title>AnalyticsService</title>
<ellipse fill="#fdb462" stroke="#000000" cx="101" cy="-104" rx="77.0004" ry="18"/>
<text text-anchor="middle" x="101" y="-99.8" font-family="Times,serif" font-size="14.00" fill="#000000">AnalyticsService</text>
</g>
<!-- AnalyticsService&#45;&gt;AnalyticsModule -->
<g id="edge11" class="edge">
<title>AnalyticsService&#45;&gt;AnalyticsModule</title>
<path fill="none" stroke="#000000" d="M101,-122.0908C101,-145.1328 101,-182 101,-182 101,-182 818.3013,-182 818.3013,-182"/>
<polygon fill="#000000" stroke="#000000" points="818.3013,-185.5001 828.3013,-182 818.3012,-178.5001 818.3013,-185.5001"/>
</g>
</g>
</svg>
