<?xml version="1.0" encoding="UTF-8" standalone="no"?>
<!DOCTYPE svg PUBLIC "-//W3C//DTD SVG 1.1//EN"
 "http://www.w3.org/Graphics/SVG/1.1/DTD/svg11.dtd">
<!-- Generated by graphviz version 2.40.1 (20161225.0304)
 -->
<!-- Title: dependencies Pages: 1 -->
<svg width="2637pt" height="284pt"
 viewBox="0.00 0.00 2637.00 284.00" xmlns="http://www.w3.org/2000/svg" xmlns:xlink="http://www.w3.org/1999/xlink">
<g id="graph0" class="graph" transform="scale(1 1) rotate(0) translate(4 280)">
<title>dependencies</title>
<polygon fill="#ffffff" stroke="transparent" points="-4,4 -4,-280 2633,-280 2633,4 -4,4"/>
<text text-anchor="start" x="1293.5091" y="-42.4" font-family="sans-serif" font-weight="bold" font-size="14.00" fill="#000000">Legend</text>
<polygon fill="#ffffb3" stroke="transparent" points="1080.5,-10 1080.5,-30 1100.5,-30 1100.5,-10 1080.5,-10"/>
<text text-anchor="start" x="1104.129" y="-15.4" font-family="sans-serif" font-size="14.00" fill="#000000"> &#160;Declarations</text>
<polygon fill="#8dd3c7" stroke="transparent" points="1193.5,-10 1193.5,-30 1213.5,-30 1213.5,-10 1193.5,-10"/>
<text text-anchor="start" x="1217.2251" y="-15.4" font-family="sans-serif" font-size="14.00" fill="#000000"> &#160;Module</text>
<polygon fill="#80b1d3" stroke="transparent" points="1279.5,-10 1279.5,-30 1299.5,-30 1299.5,-10 1279.5,-10"/>
<text text-anchor="start" x="1303.2812" y="-15.4" font-family="sans-serif" font-size="14.00" fill="#000000"> &#160;Bootstrap</text>
<polygon fill="#fdb462" stroke="transparent" points="1376.5,-10 1376.5,-30 1396.5,-30 1396.5,-10 1376.5,-10"/>
<text text-anchor="start" x="1400.1732" y="-15.4" font-family="sans-serif" font-size="14.00" fill="#000000"> &#160;Providers</text>
<polygon fill="#fb8072" stroke="transparent" points="1472.5,-10 1472.5,-30 1492.5,-30 1492.5,-10 1472.5,-10"/>
<text text-anchor="start" x="1496.2258" y="-15.4" font-family="sans-serif" font-size="14.00" fill="#000000"> &#160;Exports</text>
<g id="clust1" class="cluster">
<title>cluster_AppsModule</title>
<polygon fill="none" stroke="#000000" stroke-dasharray="1,5" points="8,-70 8,-268 2621,-268 2621,-70 8,-70"/>
</g>
<g id="clust2" class="cluster">
<title>cluster_AppsModule_declarations</title>
<polygon fill="none" stroke="#000000" points="777,-78 777,-130 2613,-130 2613,-78 777,-78"/>
</g>
<g id="clust13" class="cluster">
<title>cluster_AppsModule_imports</title>
<polygon fill="none" stroke="#000000" points="397,-78 397,-130 769,-130 769,-78 397,-78"/>
</g>
<g id="clust14" class="cluster">
<title>cluster_AppsModule_exports</title>
<polygon fill="none" stroke="#000000" points="1136,-208 1136,-260 1493,-260 1493,-208 1136,-208"/>
</g>
<g id="clust16" class="cluster">
<title>cluster_AppsModule_providers</title>
<polygon fill="none" stroke="#000000" points="16,-78 16,-130 389,-130 389,-78 16,-78"/>
</g>
<!-- AppsComponent -->
<g id="node1" class="node">
<title>AppsComponent</title>
<polygon fill="#ffffb3" stroke="#000000" points="2605.3837,-122 2494.6163,-122 2494.6163,-86 2605.3837,-86 2605.3837,-122"/>
<text text-anchor="middle" x="2550" y="-99.8" font-family="Times,serif" font-size="14.00" fill="#000000">AppsComponent</text>
</g>
<!-- AppsModule -->
<g id="node11" class="node">
<title>AppsModule</title>
<polygon fill="#8dd3c7" stroke="#000000" points="1370.6011,-187 1367.6011,-191 1346.6011,-191 1343.6011,-187 1281.3989,-187 1281.3989,-151 1370.6011,-151 1370.6011,-187"/>
<text text-anchor="middle" x="1326" y="-164.8" font-family="Times,serif" font-size="14.00" fill="#000000">AppsModule</text>
</g>
<!-- AppsComponent&#45;&gt;AppsModule -->
<g id="edge1" class="edge">
<title>AppsComponent&#45;&gt;AppsModule</title>
<path fill="none" stroke="#000000" d="M2550,-122.3228C2550,-145.6602 2550,-183 2550,-183 2550,-183 1380.6495,-183 1380.6495,-183"/>
<polygon fill="#000000" stroke="#000000" points="1380.6495,-179.5001 1370.6495,-183 1380.6495,-186.5001 1380.6495,-179.5001"/>
</g>
<!-- AppsBulkImportComponent -->
<g id="node2" class="node">
<title>AppsBulkImportComponent</title>
<polygon fill="#ffffb3" stroke="#000000" points="2476.2133,-122 2299.7867,-122 2299.7867,-86 2476.2133,-86 2476.2133,-122"/>
<text text-anchor="middle" x="2388" y="-99.8" font-family="Times,serif" font-size="14.00" fill="#000000">AppsBulkImportComponent</text>
</g>
<!-- AppsBulkImportComponent&#45;&gt;AppsModule -->
<g id="edge2" class="edge">
<title>AppsBulkImportComponent&#45;&gt;AppsModule</title>
<path fill="none" stroke="#000000" d="M2388,-122.2921C2388,-144.2057 2388,-178 2388,-178 2388,-178 1380.617,-178 1380.617,-178"/>
<polygon fill="#000000" stroke="#000000" points="1380.6171,-174.5001 1370.617,-178 1380.617,-181.5001 1380.6171,-174.5001"/>
</g>
<!-- AppsRegisterComponent -->
<g id="node3" class="node">
<title>AppsRegisterComponent</title>
<polygon fill="#ffffb3" stroke="#000000" points="2281.5365,-122 2124.4635,-122 2124.4635,-86 2281.5365,-86 2281.5365,-122"/>
<text text-anchor="middle" x="2203" y="-99.8" font-family="Times,serif" font-size="14.00" fill="#000000">AppsRegisterComponent</text>
</g>
<!-- AppsRegisterComponent&#45;&gt;AppsModule -->
<g id="edge3" class="edge">
<title>AppsRegisterComponent&#45;&gt;AppsModule</title>
<path fill="none" stroke="#000000" d="M2203,-122.0267C2203,-142.7672 2203,-174 2203,-174 2203,-174 1380.6963,-174 1380.6963,-174"/>
<polygon fill="#000000" stroke="#000000" points="1380.6963,-170.5001 1370.6963,-174 1380.6962,-177.5001 1380.6963,-170.5001"/>
</g>
<!-- AppDetailsComponent -->
<g id="node4" class="node">
<title>AppDetailsComponent</title>
<polygon fill="#ffffb3" stroke="#000000" points="2106.5912,-122 1961.4088,-122 1961.4088,-86 2106.5912,-86 2106.5912,-122"/>
<text text-anchor="middle" x="2034" y="-99.8" font-family="Times,serif" font-size="14.00" fill="#000000">AppDetailsComponent</text>
</g>
<!-- AppDetailsComponent&#45;&gt;AppsModule -->
<g id="edge4" class="edge">
<title>AppDetailsComponent&#45;&gt;AppsModule</title>
<path fill="none" stroke="#000000" d="M2034,-122.1061C2034,-141.3391 2034,-169 2034,-169 2034,-169 1380.5568,-169 1380.5568,-169"/>
<polygon fill="#000000" stroke="#000000" points="1380.5568,-165.5001 1370.5568,-169 1380.5567,-172.5001 1380.5568,-165.5001"/>
</g>
<!-- AppsUnregisterComponent -->
<g id="node5" class="node">
<title>AppsUnregisterComponent</title>
<polygon fill="#ffffb3" stroke="#000000" points="1942.9664,-122 1773.0336,-122 1773.0336,-86 1942.9664,-86 1942.9664,-122"/>
<text text-anchor="middle" x="1858" y="-99.8" font-family="Times,serif" font-size="14.00" fill="#000000">AppsUnregisterComponent</text>
</g>
<!-- AppsUnregisterComponent&#45;&gt;AppsModule -->
<g id="edge5" class="edge">
<title>AppsUnregisterComponent&#45;&gt;AppsModule</title>
<path fill="none" stroke="#000000" d="M1858,-122.302C1858,-140.2699 1858,-165 1858,-165 1858,-165 1380.8995,-165 1380.8995,-165"/>
<polygon fill="#000000" stroke="#000000" points="1380.8996,-161.5001 1370.8995,-165 1380.8995,-168.5001 1380.8996,-161.5001"/>
</g>
<!-- AppTypeComponent -->
<g id="node6" class="node">
<title>AppTypeComponent</title>
<polygon fill="#ffffb3" stroke="#000000" points="1755.2064,-122 1620.7936,-122 1620.7936,-86 1755.2064,-86 1755.2064,-122"/>
<text text-anchor="middle" x="1688" y="-99.8" font-family="Times,serif" font-size="14.00" fill="#000000">AppTypeComponent</text>
</g>
<!-- AppTypeComponent&#45;&gt;AppsModule -->
<g id="edge6" class="edge">
<title>AppTypeComponent&#45;&gt;AppsModule</title>
<path fill="none" stroke="#000000" d="M1688,-122.027C1688,-138.3976 1688,-160 1688,-160 1688,-160 1380.7514,-160 1380.7514,-160"/>
<polygon fill="#000000" stroke="#000000" points="1380.7514,-156.5001 1370.7514,-160 1380.7513,-163.5001 1380.7514,-156.5001"/>
</g>
<!-- AppVersionLabelComponent -->
<g id="node7" class="node">
<title>AppVersionLabelComponent</title>
<polygon fill="#ffffb3" stroke="#000000" points="1602.6288,-122 1421.3712,-122 1421.3712,-86 1602.6288,-86 1602.6288,-122"/>
<text text-anchor="middle" x="1512" y="-99.8" font-family="Times,serif" font-size="14.00" fill="#000000">AppVersionLabelComponent</text>
</g>
<!-- AppVersionLabelComponent&#45;&gt;AppsModule -->
<g id="edge7" class="edge">
<title>AppVersionLabelComponent&#45;&gt;AppsModule</title>
<path fill="none" stroke="#000000" d="M1453.0195,-122.1871C1453.0195,-137.1824 1453.0195,-156 1453.0195,-156 1453.0195,-156 1380.7823,-156 1380.7823,-156"/>
<polygon fill="#000000" stroke="#000000" points="1380.7823,-152.5001 1370.7823,-156 1380.7823,-159.5001 1380.7823,-152.5001"/>
</g>
<!-- AppVersionsComponent -->
<g id="node8" class="node">
<title>AppVersionsComponent</title>
<polygon fill="#ffffb3" stroke="#000000" points="1403.7007,-122 1248.2993,-122 1248.2993,-86 1403.7007,-86 1403.7007,-122"/>
<text text-anchor="middle" x="1326" y="-99.8" font-family="Times,serif" font-size="14.00" fill="#000000">AppVersionsComponent</text>
</g>
<!-- AppVersionsComponent&#45;&gt;AppsModule -->
<g id="edge8" class="edge">
<title>AppVersionsComponent&#45;&gt;AppsModule</title>
<path fill="none" stroke="#000000" d="M1326,-122.1061C1326,-122.1061 1326,-140.991 1326,-140.991"/>
<polygon fill="#000000" stroke="#000000" points="1322.5001,-140.9909 1326,-150.991 1329.5001,-140.991 1322.5001,-140.9909"/>
</g>
<!-- AppsBulkImportPropertiesComponent -->
<g id="node9" class="node">
<title>AppsBulkImportPropertiesComponent</title>
<polygon fill="#ffffb3" stroke="#000000" points="1230.472,-122 997.528,-122 997.528,-86 1230.472,-86 1230.472,-122"/>
<text text-anchor="middle" x="1114" y="-99.8" font-family="Times,serif" font-size="14.00" fill="#000000">AppsBulkImportPropertiesComponent</text>
</g>
<!-- AppsBulkImportPropertiesComponent&#45;&gt;AppsModule -->
<g id="edge9" class="edge">
<title>AppsBulkImportPropertiesComponent&#45;&gt;AppsModule</title>
<path fill="none" stroke="#000000" d="M1187.4609,-122.1871C1187.4609,-137.1824 1187.4609,-156 1187.4609,-156 1187.4609,-156 1271.4028,-156 1271.4028,-156"/>
<polygon fill="#000000" stroke="#000000" points="1271.4028,-159.5001 1281.4028,-156 1271.4027,-152.5001 1271.4028,-159.5001"/>
</g>
<!-- AppsBulkImportUriComponent -->
<g id="node10" class="node">
<title>AppsBulkImportUriComponent</title>
<polygon fill="#ffffb3" stroke="#000000" points="979.371,-122 784.629,-122 784.629,-86 979.371,-86 979.371,-122"/>
<text text-anchor="middle" x="882" y="-99.8" font-family="Times,serif" font-size="14.00" fill="#000000">AppsBulkImportUriComponent</text>
</g>
<!-- AppsBulkImportUriComponent&#45;&gt;AppsModule -->
<g id="edge10" class="edge">
<title>AppsBulkImportUriComponent&#45;&gt;AppsModule</title>
<path fill="none" stroke="#000000" d="M882,-122.027C882,-138.3976 882,-160 882,-160 882,-160 1271.3947,-160 1271.3947,-160"/>
<polygon fill="#000000" stroke="#000000" points="1271.3947,-163.5001 1281.3947,-160 1271.3947,-156.5001 1271.3947,-163.5001"/>
</g>
<!-- AppTypeComponent  -->
<g id="node15" class="node">
<title>AppTypeComponent </title>
<polygon fill="#fb8072" stroke="#000000" points="1484.7065,-252 1347.2935,-252 1347.2935,-216 1484.7065,-216 1484.7065,-252"/>
<text text-anchor="middle" x="1416" y="-229.8" font-family="Times,serif" font-size="14.00" fill="#000000">AppTypeComponent </text>
</g>
<!-- AppsModule&#45;&gt;AppTypeComponent  -->
<g id="edge14" class="edge">
<title>AppsModule&#45;&gt;AppTypeComponent </title>
<path fill="none" stroke="#000000" stroke-dasharray="5,2" d="M1358.8487,-187.1061C1358.8487,-187.1061 1358.8487,-205.991 1358.8487,-205.991"/>
<polygon fill="#000000" stroke="#000000" points="1355.3488,-205.9909 1358.8487,-215.991 1362.3488,-205.991 1355.3488,-205.9909"/>
</g>
<!-- AppVersionLabelComponent  -->
<g id="node16" class="node">
<title>AppVersionLabelComponent </title>
<polygon fill="#fb8072" stroke="#000000" points="1329.6284,-252 1144.3716,-252 1144.3716,-216 1329.6284,-216 1329.6284,-252"/>
<text text-anchor="middle" x="1237" y="-229.8" font-family="Times,serif" font-size="14.00" fill="#000000">AppVersionLabelComponent </text>
</g>
<!-- AppsModule&#45;&gt;AppVersionLabelComponent  -->
<g id="edge15" class="edge">
<title>AppsModule&#45;&gt;AppVersionLabelComponent </title>
<path fill="none" stroke="#000000" stroke-dasharray="5,2" d="M1305.5069,-187.1061C1305.5069,-187.1061 1305.5069,-205.991 1305.5069,-205.991"/>
<polygon fill="#000000" stroke="#000000" points="1302.0069,-205.9909 1305.5069,-215.991 1309.0069,-205.991 1302.0069,-205.9909"/>
</g>
<!-- AppsRoutingModule -->
<g id="node12" class="node">
<title>AppsRoutingModule</title>
<polygon fill="#8dd3c7" stroke="#000000" points="761.219,-122 758.219,-126 737.219,-126 734.219,-122 626.781,-122 626.781,-86 761.219,-86 761.219,-122"/>
<text text-anchor="middle" x="694" y="-99.8" font-family="Times,serif" font-size="14.00" fill="#000000">AppsRoutingModule</text>
</g>
<!-- AppsRoutingModule&#45;&gt;AppsModule -->
<g id="edge11" class="edge">
<title>AppsRoutingModule&#45;&gt;AppsModule</title>
<path fill="none" stroke="#000000" d="M694,-122.302C694,-140.2699 694,-165 694,-165 694,-165 1271.3072,-165 1271.3072,-165"/>
<polygon fill="#000000" stroke="#000000" points="1271.3072,-168.5001 1281.3072,-165 1271.3071,-161.5001 1271.3072,-168.5001"/>
</g>
<!-- SharedModule -->
<g id="node13" class="node">
<title>SharedModule</title>
<polygon fill="#8dd3c7" stroke="#000000" points="609.4231,-122 606.4231,-126 585.4231,-126 582.4231,-122 510.5769,-122 510.5769,-86 609.4231,-86 609.4231,-122"/>
<text text-anchor="middle" x="560" y="-99.8" font-family="Times,serif" font-size="14.00" fill="#000000">SharedModule</text>
</g>
<!-- SharedModule&#45;&gt;AppsModule -->
<g id="edge12" class="edge">
<title>SharedModule&#45;&gt;AppsModule</title>
<path fill="none" stroke="#000000" d="M560,-122.1061C560,-141.3391 560,-169 560,-169 560,-169 1271.2247,-169 1271.2247,-169"/>
<polygon fill="#000000" stroke="#000000" points="1271.2247,-172.5001 1281.2247,-169 1271.2247,-165.5001 1271.2247,-172.5001"/>
</g>
<!-- AuthModule -->
<g id="node14" class="node">
<title>AuthModule</title>
<polygon fill="#8dd3c7" stroke="#000000" points="492.5482,-122 489.5482,-126 468.5482,-126 465.5482,-122 405.4518,-122 405.4518,-86 492.5482,-86 492.5482,-122"/>
<text text-anchor="middle" x="449" y="-99.8" font-family="Times,serif" font-size="14.00" fill="#000000">AuthModule</text>
</g>
<!-- AuthModule&#45;&gt;AppsModule -->
<g id="edge13" class="edge">
<title>AuthModule&#45;&gt;AppsModule</title>
<path fill="none" stroke="#000000" d="M449,-122.0267C449,-142.7672 449,-174 449,-174 449,-174 1271.3037,-174 1271.3037,-174"/>
<polygon fill="#000000" stroke="#000000" points="1271.3038,-177.5001 1281.3037,-174 1271.3037,-170.5001 1271.3038,-177.5001"/>
</g>
<!-- AppsService -->
<g id="node17" class="node">
<title>AppsService</title>
<ellipse fill="#fdb462" stroke="#000000" cx="321" cy="-104" rx="60.2518" ry="18"/>
<text text-anchor="middle" x="321" y="-99.8" font-family="Times,serif" font-size="14.00" fill="#000000">AppsService</text>
</g>
<!-- AppsService&#45;&gt;AppsModule -->
<g id="edge16" class="edge">
<title>AppsService&#45;&gt;AppsModule</title>
<path fill="none" stroke="#000000" d="M321,-122.2921C321,-144.2057 321,-178 321,-178 321,-178 1271.1928,-178 1271.1928,-178"/>
<polygon fill="#000000" stroke="#000000" points="1271.1928,-181.5001 1281.1928,-178 1271.1927,-174.5001 1271.1928,-181.5001"/>
</g>
<!-- AppsWorkaroundService -->
<g id="node18" class="node">
<title>AppsWorkaroundService</title>
<ellipse fill="#fdb462" stroke="#000000" cx="133" cy="-104" rx="109.3565" ry="18"/>
<text text-anchor="middle" x="133" y="-99.8" font-family="Times,serif" font-size="14.00" fill="#000000">AppsWorkaroundService</text>
</g>
<!-- AppsWorkaroundService&#45;&gt;AppsModule -->
<g id="edge17" class="edge">
<title>AppsWorkaroundService&#45;&gt;AppsModule</title>
<path fill="none" stroke="#000000" d="M133,-122.3228C133,-145.6602 133,-183 133,-183 133,-183 1271.4103,-183 1271.4103,-183"/>
<polygon fill="#000000" stroke="#000000" points="1271.4104,-186.5001 1281.4103,-183 1271.4103,-179.5001 1271.4104,-186.5001"/>
</g>
</g>
</svg>
