<?xml version="1.0" encoding="UTF-8" standalone="no"?>
<!DOCTYPE svg PUBLIC "-//W3C//DTD SVG 1.1//EN"
 "http://www.w3.org/Graphics/SVG/1.1/DTD/svg11.dtd">
<!-- Generated by graphviz version 2.40.1 (20161225.0304)
 -->
<!-- Title: dependencies Pages: 1 -->
<svg width="6374pt" height="211pt"
 viewBox="0.00 0.00 6374.00 211.00" xmlns="http://www.w3.org/2000/svg" xmlns:xlink="http://www.w3.org/1999/xlink">
<g id="graph0" class="graph" transform="scale(1 1) rotate(0) translate(4 207)">
<title>dependencies</title>
<polygon fill="#ffffff" stroke="transparent" points="-4,4 -4,-207 6370,-207 6370,4 -4,4"/>
<text text-anchor="start" x="3162.0091" y="-42.4" font-family="sans-serif" font-weight="bold" font-size="14.00" fill="#000000">Legend</text>
<polygon fill="#ffffb3" stroke="transparent" points="2949,-10 2949,-30 2969,-30 2969,-10 2949,-10"/>
<text text-anchor="start" x="2972.629" y="-15.4" font-family="sans-serif" font-size="14.00" fill="#000000"> &#160;Declarations</text>
<polygon fill="#8dd3c7" stroke="transparent" points="3062,-10 3062,-30 3082,-30 3082,-10 3062,-10"/>
<text text-anchor="start" x="3085.7251" y="-15.4" font-family="sans-serif" font-size="14.00" fill="#000000"> &#160;Module</text>
<polygon fill="#80b1d3" stroke="transparent" points="3148,-10 3148,-30 3168,-30 3168,-10 3148,-10"/>
<text text-anchor="start" x="3171.7812" y="-15.4" font-family="sans-serif" font-size="14.00" fill="#000000"> &#160;Bootstrap</text>
<polygon fill="#fdb462" stroke="transparent" points="3245,-10 3245,-30 3265,-30 3265,-10 3245,-10"/>
<text text-anchor="start" x="3268.6732" y="-15.4" font-family="sans-serif" font-size="14.00" fill="#000000"> &#160;Providers</text>
<polygon fill="#fb8072" stroke="transparent" points="3341,-10 3341,-30 3361,-30 3361,-10 3341,-10"/>
<text text-anchor="start" x="3364.7258" y="-15.4" font-family="sans-serif" font-size="14.00" fill="#000000"> &#160;Exports</text>
<g id="clust1" class="cluster">
<title>cluster_TasksModule</title>
<polygon fill="none" stroke="#000000" stroke-dasharray="1,5" points="8,-70 8,-195 6358,-195 6358,-70 8,-70"/>
</g>
<g id="clust2" class="cluster">
<title>cluster_TasksModule_declarations</title>
<polygon fill="none" stroke="#000000" points="1490,-78 1490,-130 6350,-130 6350,-78 1490,-78"/>
</g>
<g id="clust28" class="cluster">
<title>cluster_TasksModule_imports</title>
<polygon fill="none" stroke="#000000" points="999,-78 999,-130 1482,-130 1482,-78 999,-78"/>
</g>
<g id="clust31" class="cluster">
<title>cluster_TasksModule_providers</title>
<polygon fill="none" stroke="#000000" points="16,-78 16,-130 991,-130 991,-78 16,-78"/>
</g>
<!-- TasksComponent -->
<g id="node1" class="node">
<title>TasksComponent</title>
<polygon fill="#ffffb3" stroke="#000000" points="6341.9888,-122 6228.0112,-122 6228.0112,-86 6341.9888,-86 6341.9888,-122"/>
<text text-anchor="middle" x="6285" y="-99.8" font-family="Times,serif" font-size="14.00" fill="#000000">TasksComponent</text>
</g>
<!-- TasksModule -->
<g id="node26" class="node">
<title>TasksModule</title>
<polygon fill="#8dd3c7" stroke="#000000" points="3108.2064,-187 3105.2064,-191 3084.2064,-191 3081.2064,-187 3015.7936,-187 3015.7936,-151 3108.2064,-151 3108.2064,-187"/>
<text text-anchor="middle" x="3062" y="-164.8" font-family="Times,serif" font-size="14.00" fill="#000000">TasksModule</text>
</g>
<!-- TasksComponent&#45;&gt;TasksModule -->
<g id="edge1" class="edge">
<title>TasksComponent&#45;&gt;TasksModule</title>
<path fill="none" stroke="#000000" d="M6285,-122.3802C6285,-146.2785 6285,-185 6285,-185 6285,-185 3118.1806,-185 3118.1806,-185"/>
<polygon fill="#000000" stroke="#000000" points="3118.1806,-181.5001 3108.1806,-185 3118.1805,-188.5001 3118.1806,-181.5001"/>
</g>
<!-- TaskDefinitionCreateComponent -->
<g id="node2" class="node">
<title>TaskDefinitionCreateComponent</title>
<polygon fill="#ffffb3" stroke="#000000" points="6210.1204,-122 6007.8796,-122 6007.8796,-86 6210.1204,-86 6210.1204,-122"/>
<text text-anchor="middle" x="6109" y="-99.8" font-family="Times,serif" font-size="14.00" fill="#000000">TaskDefinitionCreateComponent</text>
</g>
<!-- TaskDefinitionCreateComponent&#45;&gt;TasksModule -->
<g id="edge2" class="edge">
<title>TaskDefinitionCreateComponent&#45;&gt;TasksModule</title>
<path fill="none" stroke="#000000" d="M6109,-122.3228C6109,-145.6602 6109,-183 6109,-183 6109,-183 3118.3393,-183 3118.3393,-183"/>
<polygon fill="#000000" stroke="#000000" points="3118.3393,-179.5001 3108.3393,-183 3118.3393,-186.5001 3118.3393,-179.5001"/>
</g>
<!-- TaskDefinitionCreateDialogComponent -->
<g id="node3" class="node">
<title>TaskDefinitionCreateDialogComponent</title>
<polygon fill="#ffffb3" stroke="#000000" points="5989.2226,-122 5748.7774,-122 5748.7774,-86 5989.2226,-86 5989.2226,-122"/>
<text text-anchor="middle" x="5869" y="-99.8" font-family="Times,serif" font-size="14.00" fill="#000000">TaskDefinitionCreateDialogComponent</text>
</g>
<!-- TaskDefinitionCreateDialogComponent&#45;&gt;TasksModule -->
<g id="edge3" class="edge">
<title>TaskDefinitionCreateDialogComponent&#45;&gt;TasksModule</title>
<path fill="none" stroke="#000000" d="M5869,-122.0908C5869,-145.1328 5869,-182 5869,-182 5869,-182 3118.3788,-182 3118.3788,-182"/>
<polygon fill="#000000" stroke="#000000" points="3118.3788,-178.5001 3108.3788,-182 3118.3787,-185.5001 3118.3788,-178.5001"/>
</g>
<!-- TaskExecutionsComponent -->
<g id="node4" class="node">
<title>TaskExecutionsComponent</title>
<polygon fill="#ffffb3" stroke="#000000" points="5730.252,-122 5559.748,-122 5559.748,-86 5730.252,-86 5730.252,-122"/>
<text text-anchor="middle" x="5645" y="-99.8" font-family="Times,serif" font-size="14.00" fill="#000000">TaskExecutionsComponent</text>
</g>
<!-- TaskExecutionsComponent&#45;&gt;TasksModule -->
<g id="edge4" class="edge">
<title>TaskExecutionsComponent&#45;&gt;TasksModule</title>
<path fill="none" stroke="#000000" d="M5645,-122.1554C5645,-144.3519 5645,-179 5645,-179 5645,-179 3118.2051,-179 3118.2051,-179"/>
<polygon fill="#000000" stroke="#000000" points="3118.2051,-175.5001 3108.2051,-179 3118.205,-182.5001 3118.2051,-175.5001"/>
</g>
<!-- TaskExecutionComponent -->
<g id="node5" class="node">
<title>TaskExecutionComponent</title>
<polygon fill="#ffffb3" stroke="#000000" points="5541.8075,-122 5376.1925,-122 5376.1925,-86 5541.8075,-86 5541.8075,-122"/>
<text text-anchor="middle" x="5459" y="-99.8" font-family="Times,serif" font-size="14.00" fill="#000000">TaskExecutionComponent</text>
</g>
<!-- TaskExecutionComponent&#45;&gt;TasksModule -->
<g id="edge5" class="edge">
<title>TaskExecutionComponent&#45;&gt;TasksModule</title>
<path fill="none" stroke="#000000" d="M5459,-122.0449C5459,-143.6623 5459,-177 5459,-177 5459,-177 3118.2731,-177 3118.2731,-177"/>
<polygon fill="#000000" stroke="#000000" points="3118.2731,-173.5001 3108.2731,-177 3118.2731,-180.5001 3118.2731,-173.5001"/>
</g>
<!-- TaskLaunchComponent -->
<g id="node6" class="node">
<title>TaskLaunchComponent</title>
<polygon fill="#ffffb3" stroke="#000000" points="5358.0267,-122 5207.9733,-122 5207.9733,-86 5358.0267,-86 5358.0267,-122"/>
<text text-anchor="middle" x="5283" y="-99.8" font-family="Times,serif" font-size="14.00" fill="#000000">TaskLaunchComponent</text>
</g>
<!-- TaskLaunchComponent&#45;&gt;TasksModule -->
<g id="edge6" class="edge">
<title>TaskLaunchComponent&#45;&gt;TasksModule</title>
<path fill="none" stroke="#000000" d="M5283,-122.2843C5283,-143.3211 5283,-175 5283,-175 5283,-175 3118.1335,-175 3118.1335,-175"/>
<polygon fill="#000000" stroke="#000000" points="3118.1335,-171.5001 3108.1335,-175 3118.1335,-178.5001 3118.1335,-171.5001"/>
</g>
<!-- TaskGraphViewComponent -->
<g id="node7" class="node">
<title>TaskGraphViewComponent</title>
<polygon fill="#ffffb3" stroke="#000000" points="5189.8445,-122 5016.1555,-122 5016.1555,-86 5189.8445,-86 5189.8445,-122"/>
<text text-anchor="middle" x="5103" y="-99.8" font-family="Times,serif" font-size="14.00" fill="#000000">TaskGraphViewComponent</text>
</g>
<!-- TaskGraphViewComponent&#45;&gt;TasksModule -->
<g id="edge7" class="edge">
<title>TaskGraphViewComponent&#45;&gt;TasksModule</title>
<path fill="none" stroke="#000000" d="M5103,-122.1289C5103,-142.5724 5103,-173 5103,-173 5103,-173 3118.4639,-173 3118.4639,-173"/>
<polygon fill="#000000" stroke="#000000" points="3118.464,-169.5001 3108.4639,-173 3118.4639,-176.5001 3118.464,-169.5001"/>
</g>
<!-- NodeComponent -->
<g id="node8" class="node">
<title>NodeComponent</title>
<polygon fill="#ffffb3" stroke="#000000" points="4997.6541,-122 4886.3459,-122 4886.3459,-86 4997.6541,-86 4997.6541,-122"/>
<text text-anchor="middle" x="4942" y="-99.8" font-family="Times,serif" font-size="14.00" fill="#000000">NodeComponent</text>
</g>
<!-- NodeComponent&#45;&gt;TasksModule -->
<g id="edge8" class="edge">
<title>NodeComponent&#45;&gt;TasksModule</title>
<path fill="none" stroke="#000000" d="M4942,-122.308C4942,-142.1455 4942,-171 4942,-171 4942,-171 3118.4722,-171 3118.4722,-171"/>
<polygon fill="#000000" stroke="#000000" points="3118.4722,-167.5001 3108.4722,-171 3118.4721,-174.5001 3118.4722,-167.5001"/>
</g>
<!-- TaskPropertiesDialogComponent -->
<g id="node9" class="node">
<title>TaskPropertiesDialogComponent</title>
<polygon fill="#ffffb3" stroke="#000000" points="4867.9058,-122 4664.0942,-122 4664.0942,-86 4867.9058,-86 4867.9058,-122"/>
<text text-anchor="middle" x="4766" y="-99.8" font-family="Times,serif" font-size="14.00" fill="#000000">TaskPropertiesDialogComponent</text>
</g>
<!-- TaskPropertiesDialogComponent&#45;&gt;TasksModule -->
<g id="edge9" class="edge">
<title>TaskPropertiesDialogComponent&#45;&gt;TasksModule</title>
<path fill="none" stroke="#000000" d="M4766,-122.1061C4766,-141.3391 4766,-169 4766,-169 4766,-169 3118.4616,-169 3118.4616,-169"/>
<polygon fill="#000000" stroke="#000000" points="3118.4617,-165.5001 3108.4616,-169 3118.4616,-172.5001 3118.4617,-165.5001"/>
</g>
<!-- TaskDefinitionComponent -->
<g id="node10" class="node">
<title>TaskDefinitionComponent</title>
<polygon fill="#ffffb3" stroke="#000000" points="4646.0884,-122 4479.9116,-122 4479.9116,-86 4646.0884,-86 4646.0884,-122"/>
<text text-anchor="middle" x="4563" y="-99.8" font-family="Times,serif" font-size="14.00" fill="#000000">TaskDefinitionComponent</text>
</g>
<!-- TaskDefinitionComponent&#45;&gt;TasksModule -->
<g id="edge10" class="edge">
<title>TaskDefinitionComponent&#45;&gt;TasksModule</title>
<path fill="none" stroke="#000000" d="M4563,-122.2222C4563,-140.8285 4563,-167 4563,-167 4563,-167 3118.1539,-167 3118.1539,-167"/>
<polygon fill="#000000" stroke="#000000" points="3118.1539,-163.5001 3108.1539,-167 3118.1538,-170.5001 3118.1539,-163.5001"/>
</g>
<!-- TaskStatusComponent -->
<g id="node11" class="node">
<title>TaskStatusComponent</title>
<polygon fill="#ffffb3" stroke="#000000" points="4462.2674,-122 4319.7326,-122 4319.7326,-86 4462.2674,-86 4462.2674,-122"/>
<text text-anchor="middle" x="4391" y="-99.8" font-family="Times,serif" font-size="14.00" fill="#000000">TaskStatusComponent</text>
</g>
<!-- TaskStatusComponent&#45;&gt;TasksModule -->
<g id="edge11" class="edge">
<title>TaskStatusComponent&#45;&gt;TasksModule</title>
<path fill="none" stroke="#000000" d="M4391,-122.302C4391,-140.2699 4391,-165 4391,-165 4391,-165 3118.1331,-165 3118.1331,-165"/>
<polygon fill="#000000" stroke="#000000" points="3118.1332,-161.5001 3108.1331,-165 3118.1331,-168.5001 3118.1332,-161.5001"/>
</g>
<!-- TaskDefinitionsDestroyComponent -->
<g id="node12" class="node">
<title>TaskDefinitionsDestroyComponent</title>
<polygon fill="#ffffb3" stroke="#000000" points="4301.8501,-122 4086.1499,-122 4086.1499,-86 4301.8501,-86 4301.8501,-122"/>
<text text-anchor="middle" x="4194" y="-99.8" font-family="Times,serif" font-size="14.00" fill="#000000">TaskDefinitionsDestroyComponent</text>
</g>
<!-- TaskDefinitionsDestroyComponent&#45;&gt;TasksModule -->
<g id="edge12" class="edge">
<title>TaskDefinitionsDestroyComponent&#45;&gt;TasksModule</title>
<path fill="none" stroke="#000000" d="M4194,-122.0225C4194,-139.3734 4194,-163 4194,-163 4194,-163 3118.1313,-163 3118.1313,-163"/>
<polygon fill="#000000" stroke="#000000" points="3118.1314,-159.5001 3108.1313,-163 3118.1313,-166.5001 3118.1314,-159.5001"/>
</g>
<!-- TaskDefinitionsComponent -->
<g id="node13" class="node">
<title>TaskDefinitionsComponent</title>
<polygon fill="#ffffb3" stroke="#000000" points="4067.5336,-122 3896.4664,-122 3896.4664,-86 4067.5336,-86 4067.5336,-122"/>
<text text-anchor="middle" x="3982" y="-99.8" font-family="Times,serif" font-size="14.00" fill="#000000">TaskDefinitionsComponent</text>
</g>
<!-- TaskDefinitionsComponent&#45;&gt;TasksModule -->
<g id="edge13" class="edge">
<title>TaskDefinitionsComponent&#45;&gt;TasksModule</title>
<path fill="none" stroke="#000000" d="M3982,-122.0352C3982,-138.7344 3982,-161 3982,-161 3982,-161 3118.2534,-161 3118.2534,-161"/>
<polygon fill="#000000" stroke="#000000" points="3118.2535,-157.5001 3108.2534,-161 3118.2534,-164.5001 3118.2535,-157.5001"/>
</g>
<!-- TaskSummaryComponent -->
<g id="node14" class="node">
<title>TaskSummaryComponent</title>
<polygon fill="#ffffb3" stroke="#000000" points="3878.4832,-122 3715.5168,-122 3715.5168,-86 3878.4832,-86 3878.4832,-122"/>
<text text-anchor="middle" x="3797" y="-99.8" font-family="Times,serif" font-size="14.00" fill="#000000">TaskSummaryComponent</text>
</g>
<!-- TaskSummaryComponent&#45;&gt;TasksModule -->
<g id="edge14" class="edge">
<title>TaskSummaryComponent&#45;&gt;TasksModule</title>
<path fill="none" stroke="#000000" d="M3797,-122.0091C3797,-138.0494 3797,-159 3797,-159 3797,-159 3118.256,-159 3118.256,-159"/>
<polygon fill="#000000" stroke="#000000" points="3118.256,-155.5001 3108.256,-159 3118.2559,-162.5001 3118.256,-155.5001"/>
</g>
<!-- TaskGraphComponent -->
<g id="node15" class="node">
<title>TaskGraphComponent</title>
<polygon fill="#ffffb3" stroke="#000000" points="3697.5268,-122 3554.4732,-122 3554.4732,-86 3697.5268,-86 3697.5268,-122"/>
<text text-anchor="middle" x="3626" y="-99.8" font-family="Times,serif" font-size="14.00" fill="#000000">TaskGraphComponent</text>
</g>
<!-- TaskGraphComponent&#45;&gt;TasksModule -->
<g id="edge15" class="edge">
<title>TaskGraphComponent&#45;&gt;TasksModule</title>
<path fill="none" stroke="#000000" d="M3626,-122.2396C3626,-137.5706 3626,-157 3626,-157 3626,-157 3118.1545,-157 3118.1545,-157"/>
<polygon fill="#000000" stroke="#000000" points="3118.1545,-153.5001 3108.1545,-157 3118.1545,-160.5001 3118.1545,-153.5001"/>
</g>
<!-- TasksTabulationComponent -->
<g id="node16" class="node">
<title>TasksTabulationComponent</title>
<polygon fill="#ffffb3" stroke="#000000" points="3536.1428,-122 3361.8572,-122 3361.8572,-86 3536.1428,-86 3536.1428,-122"/>
<text text-anchor="middle" x="3449" y="-99.8" font-family="Times,serif" font-size="14.00" fill="#000000">TasksTabulationComponent</text>
</g>
<!-- TasksTabulationComponent&#45;&gt;TasksModule -->
<g id="edge16" class="edge">
<title>TasksTabulationComponent&#45;&gt;TasksModule</title>
<path fill="none" stroke="#000000" d="M3449,-122.1243C3449,-136.7832 3449,-155 3449,-155 3449,-155 3118.2968,-155 3118.2968,-155"/>
<polygon fill="#000000" stroke="#000000" points="3118.2969,-151.5001 3108.2968,-155 3118.2968,-158.5001 3118.2969,-151.5001"/>
</g>
<!-- TaskSchedulesComponent -->
<g id="node17" class="node">
<title>TaskSchedulesComponent</title>
<polygon fill="#ffffb3" stroke="#000000" points="3343.8061,-122 3178.1939,-122 3178.1939,-86 3343.8061,-86 3343.8061,-122"/>
<text text-anchor="middle" x="3261" y="-99.8" font-family="Times,serif" font-size="14.00" fill="#000000">TaskSchedulesComponent</text>
</g>
<!-- TaskSchedulesComponent&#45;&gt;TasksModule -->
<g id="edge17" class="edge">
<title>TaskSchedulesComponent&#45;&gt;TasksModule</title>
<path fill="none" stroke="#000000" d="M3261,-122.2458C3261,-136.1772 3261,-153 3261,-153 3261,-153 3118.1548,-153 3118.1548,-153"/>
<polygon fill="#000000" stroke="#000000" points="3118.1548,-149.5001 3108.1548,-153 3118.1548,-156.5001 3118.1548,-149.5001"/>
</g>
<!-- TaskScheduleCreateComponent -->
<g id="node18" class="node">
<title>TaskScheduleCreateComponent</title>
<polygon fill="#ffffb3" stroke="#000000" points="3160.3932,-122 2963.6068,-122 2963.6068,-86 3160.3932,-86 3160.3932,-122"/>
<text text-anchor="middle" x="3062" y="-99.8" font-family="Times,serif" font-size="14.00" fill="#000000">TaskScheduleCreateComponent</text>
</g>
<!-- TaskScheduleCreateComponent&#45;&gt;TasksModule -->
<g id="edge18" class="edge">
<title>TaskScheduleCreateComponent&#45;&gt;TasksModule</title>
<path fill="none" stroke="#000000" d="M3062,-122.1061C3062,-122.1061 3062,-140.991 3062,-140.991"/>
<polygon fill="#000000" stroke="#000000" points="3058.5001,-140.9909 3062,-150.991 3065.5001,-140.991 3058.5001,-140.9909"/>
</g>
<!-- TaskScheduleComponent -->
<g id="node19" class="node">
<title>TaskScheduleComponent</title>
<polygon fill="#ffffb3" stroke="#000000" points="2945.8613,-122 2786.1387,-122 2786.1387,-86 2945.8613,-86 2945.8613,-122"/>
<text text-anchor="middle" x="2866" y="-99.8" font-family="Times,serif" font-size="14.00" fill="#000000">TaskScheduleComponent</text>
</g>
<!-- TaskScheduleComponent&#45;&gt;TasksModule -->
<g id="edge19" class="edge">
<title>TaskScheduleComponent&#45;&gt;TasksModule</title>
<path fill="none" stroke="#000000" d="M2866,-122.2458C2866,-136.1772 2866,-153 2866,-153 2866,-153 3005.5507,-153 3005.5507,-153"/>
<polygon fill="#000000" stroke="#000000" points="3005.5508,-156.5001 3015.5507,-153 3005.5507,-149.5001 3005.5508,-156.5001"/>
</g>
<!-- TaskScheduleSummaryComponent -->
<g id="node20" class="node">
<title>TaskScheduleSummaryComponent</title>
<polygon fill="#ffffb3" stroke="#000000" points="2768.3004,-122 2553.6996,-122 2553.6996,-86 2768.3004,-86 2768.3004,-122"/>
<text text-anchor="middle" x="2661" y="-99.8" font-family="Times,serif" font-size="14.00" fill="#000000">TaskScheduleSummaryComponent</text>
</g>
<!-- TaskScheduleSummaryComponent&#45;&gt;TasksModule -->
<g id="edge20" class="edge">
<title>TaskScheduleSummaryComponent&#45;&gt;TasksModule</title>
<path fill="none" stroke="#000000" d="M2661,-122.1243C2661,-136.7832 2661,-155 2661,-155 2661,-155 3005.6085,-155 3005.6085,-155"/>
<polygon fill="#000000" stroke="#000000" points="3005.6085,-158.5001 3015.6085,-155 3005.6084,-151.5001 3005.6085,-158.5001"/>
</g>
<!-- TasksHeaderComponent -->
<g id="node21" class="node">
<title>TasksHeaderComponent</title>
<polygon fill="#ffffb3" stroke="#000000" points="2536.4003,-122 2381.5997,-122 2381.5997,-86 2536.4003,-86 2536.4003,-122"/>
<text text-anchor="middle" x="2459" y="-99.8" font-family="Times,serif" font-size="14.00" fill="#000000">TasksHeaderComponent</text>
</g>
<!-- TasksHeaderComponent&#45;&gt;TasksModule -->
<g id="edge21" class="edge">
<title>TasksHeaderComponent&#45;&gt;TasksModule</title>
<path fill="none" stroke="#000000" d="M2459,-122.2396C2459,-137.5706 2459,-157 2459,-157 2459,-157 3005.6849,-157 3005.6849,-157"/>
<polygon fill="#000000" stroke="#000000" points="3005.6849,-160.5001 3015.6849,-157 3005.6848,-153.5001 3005.6849,-160.5001"/>
</g>
<!-- TaskSchedulesDestroyComponent -->
<g id="node22" class="node">
<title>TaskSchedulesDestroyComponent</title>
<polygon fill="#ffffb3" stroke="#000000" points="2363.6231,-122 2154.3769,-122 2154.3769,-86 2363.6231,-86 2363.6231,-122"/>
<text text-anchor="middle" x="2259" y="-99.8" font-family="Times,serif" font-size="14.00" fill="#000000">TaskSchedulesDestroyComponent</text>
</g>
<!-- TaskSchedulesDestroyComponent&#45;&gt;TasksModule -->
<g id="edge22" class="edge">
<title>TaskSchedulesDestroyComponent&#45;&gt;TasksModule</title>
<path fill="none" stroke="#000000" d="M2259,-122.0091C2259,-138.0494 2259,-159 2259,-159 2259,-159 3005.6502,-159 3005.6502,-159"/>
<polygon fill="#000000" stroke="#000000" points="3005.6502,-162.5001 3015.6502,-159 3005.6502,-155.5001 3005.6502,-162.5001"/>
</g>
<!-- TaskDefinitionScheduleComponent -->
<g id="node23" class="node">
<title>TaskDefinitionScheduleComponent</title>
<polygon fill="#ffffb3" stroke="#000000" points="2135.9058,-122 1918.0942,-122 1918.0942,-86 2135.9058,-86 2135.9058,-122"/>
<text text-anchor="middle" x="2027" y="-99.8" font-family="Times,serif" font-size="14.00" fill="#000000">TaskDefinitionScheduleComponent</text>
</g>
<!-- TaskDefinitionScheduleComponent&#45;&gt;TasksModule -->
<g id="edge23" class="edge">
<title>TaskDefinitionScheduleComponent&#45;&gt;TasksModule</title>
<path fill="none" stroke="#000000" d="M2027,-122.0352C2027,-138.7344 2027,-161 2027,-161 2027,-161 3005.8552,-161 3005.8552,-161"/>
<polygon fill="#000000" stroke="#000000" points="3005.8553,-164.5001 3015.8552,-161 3005.8552,-157.5001 3005.8553,-164.5001"/>
</g>
<!-- TaskDefinitionExecutionsComponent -->
<g id="node24" class="node">
<title>TaskDefinitionExecutionsComponent</title>
<polygon fill="#ffffb3" stroke="#000000" points="1900.2962,-122 1671.7038,-122 1671.7038,-86 1900.2962,-86 1900.2962,-122"/>
<text text-anchor="middle" x="1786" y="-99.8" font-family="Times,serif" font-size="14.00" fill="#000000">TaskDefinitionExecutionsComponent</text>
</g>
<!-- TaskDefinitionExecutionsComponent&#45;&gt;TasksModule -->
<g id="edge24" class="edge">
<title>TaskDefinitionExecutionsComponent&#45;&gt;TasksModule</title>
<path fill="none" stroke="#000000" d="M1786,-122.0225C1786,-139.3734 1786,-163 1786,-163 1786,-163 3005.8327,-163 3005.8327,-163"/>
<polygon fill="#000000" stroke="#000000" points="3005.8327,-166.5001 3015.8327,-163 3005.8326,-159.5001 3005.8327,-166.5001"/>
</g>
<!-- TaskSchedulesFilterPipe -->
<g id="node25" class="node">
<title>TaskSchedulesFilterPipe</title>
<polygon fill="#ffffb3" stroke="#000000" points="1653.6909,-122 1498.3091,-122 1498.3091,-86 1653.6909,-86 1653.6909,-122"/>
<text text-anchor="middle" x="1576" y="-99.8" font-family="Times,serif" font-size="14.00" fill="#000000">TaskSchedulesFilterPipe</text>
</g>
<!-- TaskSchedulesFilterPipe&#45;&gt;TasksModule -->
<g id="edge25" class="edge">
<title>TaskSchedulesFilterPipe&#45;&gt;TasksModule</title>
<path fill="none" stroke="#000000" d="M1576,-122.302C1576,-140.2699 1576,-165 1576,-165 1576,-165 3005.4859,-165 3005.4859,-165"/>
<polygon fill="#000000" stroke="#000000" points="3005.4859,-168.5001 3015.4859,-165 3005.4859,-161.5001 3005.4859,-168.5001"/>
</g>
<!-- TasksRoutingModule -->
<g id="node27" class="node">
<title>TasksRoutingModule</title>
<polygon fill="#8dd3c7" stroke="#000000" points="1473.8244,-122 1470.8244,-126 1449.8244,-126 1446.8244,-122 1336.1756,-122 1336.1756,-86 1473.8244,-86 1473.8244,-122"/>
<text text-anchor="middle" x="1405" y="-99.8" font-family="Times,serif" font-size="14.00" fill="#000000">TasksRoutingModule</text>
</g>
<!-- TasksRoutingModule&#45;&gt;TasksModule -->
<g id="edge26" class="edge">
<title>TasksRoutingModule&#45;&gt;TasksModule</title>
<path fill="none" stroke="#000000" d="M1405,-122.2222C1405,-140.8285 1405,-167 1405,-167 1405,-167 3005.5166,-167 3005.5166,-167"/>
<polygon fill="#000000" stroke="#000000" points="3005.5166,-170.5001 3015.5166,-167 3005.5165,-163.5001 3005.5166,-170.5001"/>
</g>
<!-- SharedModule -->
<g id="node28" class="node">
<title>SharedModule</title>
<polygon fill="#8dd3c7" stroke="#000000" points="1318.4231,-122 1315.4231,-126 1294.4231,-126 1291.4231,-122 1219.5769,-122 1219.5769,-86 1318.4231,-86 1318.4231,-122"/>
<text text-anchor="middle" x="1269" y="-99.8" font-family="Times,serif" font-size="14.00" fill="#000000">SharedModule</text>
</g>
<!-- SharedModule&#45;&gt;TasksModule -->
<g id="edge27" class="edge">
<title>SharedModule&#45;&gt;TasksModule</title>
<path fill="none" stroke="#000000" d="M1269,-122.1061C1269,-141.3391 1269,-169 1269,-169 1269,-169 3005.8766,-169 3005.8766,-169"/>
<polygon fill="#000000" stroke="#000000" points="3005.8766,-172.5001 3015.8766,-169 3005.8766,-165.5001 3005.8766,-172.5001"/>
</g>
<!-- AppsModule -->
<g id="node29" class="node">
<title>AppsModule</title>
<polygon fill="#8dd3c7" stroke="#000000" points="1201.6011,-122 1198.6011,-126 1177.6011,-126 1174.6011,-122 1112.3989,-122 1112.3989,-86 1201.6011,-86 1201.6011,-122"/>
<text text-anchor="middle" x="1157" y="-99.8" font-family="Times,serif" font-size="14.00" fill="#000000">AppsModule</text>
</g>
<!-- AppsModule&#45;&gt;TasksModule -->
<g id="edge28" class="edge">
<title>AppsModule&#45;&gt;TasksModule</title>
<path fill="none" stroke="#000000" d="M1157,-122.308C1157,-142.1455 1157,-171 1157,-171 1157,-171 3005.8538,-171 3005.8538,-171"/>
<polygon fill="#000000" stroke="#000000" points="3005.8538,-174.5001 3015.8538,-171 3005.8537,-167.5001 3005.8538,-174.5001"/>
</g>
<!-- AuthModule -->
<g id="node30" class="node">
<title>AuthModule</title>
<polygon fill="#8dd3c7" stroke="#000000" points="1094.5482,-122 1091.5482,-126 1070.5482,-126 1067.5482,-122 1007.4518,-122 1007.4518,-86 1094.5482,-86 1094.5482,-122"/>
<text text-anchor="middle" x="1051" y="-99.8" font-family="Times,serif" font-size="14.00" fill="#000000">AuthModule</text>
</g>
<!-- AuthModule&#45;&gt;TasksModule -->
<g id="edge29" class="edge">
<title>AuthModule&#45;&gt;TasksModule</title>
<path fill="none" stroke="#000000" d="M1051,-122.1289C1051,-142.5724 1051,-173 1051,-173 1051,-173 3005.7361,-173 3005.7361,-173"/>
<polygon fill="#000000" stroke="#000000" points="3005.7361,-176.5001 3015.7361,-173 3005.736,-169.5001 3005.7361,-176.5001"/>
</g>
<!-- TasksService -->
<g id="node31" class="node">
<title>TasksService</title>
<ellipse fill="#fdb462" stroke="#000000" cx="920" cy="-104" rx="62.5354" ry="18"/>
<text text-anchor="middle" x="920" y="-99.8" font-family="Times,serif" font-size="14.00" fill="#000000">TasksService</text>
</g>
<!-- TasksService&#45;&gt;TasksModule -->
<g id="edge30" class="edge">
<title>TasksService&#45;&gt;TasksModule</title>
<path fill="none" stroke="#000000" d="M920,-122.2843C920,-143.3211 920,-175 920,-175 920,-175 3005.771,-175 3005.771,-175"/>
<polygon fill="#000000" stroke="#000000" points="3005.7711,-178.5001 3015.771,-175 3005.771,-171.5001 3005.7711,-178.5001"/>
</g>
<!-- MetamodelService -->
<g id="node32" class="node">
<title>MetamodelService</title>
<ellipse fill="#fdb462" stroke="#000000" cx="756" cy="-104" rx="83.945" ry="18"/>
<text text-anchor="middle" x="756" y="-99.8" font-family="Times,serif" font-size="14.00" fill="#000000">MetamodelService</text>
</g>
<!-- MetamodelService&#45;&gt;TasksModule -->
<g id="edge31" class="edge">
<title>MetamodelService&#45;&gt;TasksModule</title>
<path fill="none" stroke="#000000" d="M756,-122.0449C756,-143.6623 756,-177 756,-177 756,-177 3005.6766,-177 3005.6766,-177"/>
<polygon fill="#000000" stroke="#000000" points="3005.6766,-180.5001 3015.6766,-177 3005.6765,-173.5001 3005.6766,-180.5001"/>
</g>
<!-- RenderService -->
<g id="node33" class="node">
<title>RenderService</title>
<ellipse fill="#fdb462" stroke="#000000" cx="586" cy="-104" rx="67.7548" ry="18"/>
<text text-anchor="middle" x="586" y="-99.8" font-family="Times,serif" font-size="14.00" fill="#000000">RenderService</text>
</g>
<!-- RenderService&#45;&gt;TasksModule -->
<g id="edge32" class="edge">
<title>RenderService&#45;&gt;TasksModule</title>
<path fill="none" stroke="#000000" d="M586,-122.1554C586,-144.3519 586,-179 586,-179 586,-179 3005.8361,-179 3005.8361,-179"/>
<polygon fill="#000000" stroke="#000000" points="3005.8361,-182.5001 3015.8361,-179 3005.8361,-175.5001 3005.8361,-182.5001"/>
</g>
<!-- EditorService -->
<g id="node34" class="node">
<title>EditorService</title>
<ellipse fill="#fdb462" stroke="#000000" cx="436" cy="-104" rx="64.261" ry="18"/>
<text text-anchor="middle" x="436" y="-99.8" font-family="Times,serif" font-size="14.00" fill="#000000">EditorService</text>
</g>
<!-- EditorService&#45;&gt;TasksModule -->
<g id="edge33" class="edge">
<title>EditorService&#45;&gt;TasksModule</title>
<path fill="none" stroke="#000000" d="M436,-122.0908C436,-145.1328 436,-182 436,-182 436,-182 3005.8652,-182 3005.8652,-182"/>
<polygon fill="#000000" stroke="#000000" points="3005.8652,-185.5001 3015.8652,-182 3005.8651,-178.5001 3005.8652,-185.5001"/>
</g>
<!-- ToolsService -->
<g id="node35" class="node">
<title>ToolsService</title>
<ellipse fill="#fdb462" stroke="#000000" cx="292" cy="-104" rx="61.975" ry="18"/>
<text text-anchor="middle" x="292" y="-99.8" font-family="Times,serif" font-size="14.00" fill="#000000">ToolsService</text>
</g>
<!-- ToolsService&#45;&gt;TasksModule -->
<g id="edge34" class="edge">
<title>ToolsService&#45;&gt;TasksModule</title>
<path fill="none" stroke="#000000" d="M292,-122.3228C292,-145.6602 292,-183 292,-183 292,-183 3005.6598,-183 3005.6598,-183"/>
<polygon fill="#000000" stroke="#000000" points="3005.6598,-186.5001 3015.6598,-183 3005.6598,-179.5001 3005.6598,-186.5001"/>
</g>
<!-- ContentAssistService -->
<g id="node36" class="node">
<title>ContentAssistService</title>
<ellipse fill="#fdb462" stroke="#000000" cx="118" cy="-104" rx="94.3543" ry="18"/>
<text text-anchor="middle" x="118" y="-99.8" font-family="Times,serif" font-size="14.00" fill="#000000">ContentAssistService</text>
</g>
<!-- ContentAssistService&#45;&gt;TasksModule -->
<g id="edge35" class="edge">
<title>ContentAssistService&#45;&gt;TasksModule</title>
<path fill="none" stroke="#000000" d="M118,-122.3802C118,-146.2785 118,-185 118,-185 118,-185 3005.7568,-185 3005.7568,-185"/>
<polygon fill="#000000" stroke="#000000" points="3005.7568,-188.5001 3015.7568,-185 3005.7568,-181.5001 3005.7568,-188.5001"/>
</g>
</g>
</svg>
