<?xml version="1.0" encoding="UTF-8" standalone="no"?>
<!DOCTYPE svg PUBLIC "-//W3C//DTD SVG 1.1//EN"
 "http://www.w3.org/Graphics/SVG/1.1/DTD/svg11.dtd">
<!-- Generated by graphviz version 2.40.1 (20161225.0304)
 -->
<!-- Title: dependencies Pages: 1 -->
<svg width="694pt" height="284pt"
 viewBox="0.00 0.00 694.00 284.00" xmlns="http://www.w3.org/2000/svg" xmlns:xlink="http://www.w3.org/1999/xlink">
<g id="graph0" class="graph" transform="scale(1 1) rotate(0) translate(4 280)">
<title>dependencies</title>
<polygon fill="#ffffff" stroke="transparent" points="-4,4 -4,-280 690,-280 690,4 -4,4"/>
<text text-anchor="start" x="322.0091" y="-42.4" font-family="sans-serif" font-weight="bold" font-size="14.00" fill="#000000">Legend</text>
<polygon fill="#ffffb3" stroke="transparent" points="109,-10 109,-30 129,-30 129,-10 109,-10"/>
<text text-anchor="start" x="132.629" y="-15.4" font-family="sans-serif" font-size="14.00" fill="#000000"> &#160;Declarations</text>
<polygon fill="#8dd3c7" stroke="transparent" points="222,-10 222,-30 242,-30 242,-10 222,-10"/>
<text text-anchor="start" x="245.7251" y="-15.4" font-family="sans-serif" font-size="14.00" fill="#000000"> &#160;Module</text>
<polygon fill="#80b1d3" stroke="transparent" points="308,-10 308,-30 328,-30 328,-10 308,-10"/>
<text text-anchor="start" x="331.7812" y="-15.4" font-family="sans-serif" font-size="14.00" fill="#000000"> &#160;Bootstrap</text>
<polygon fill="#fdb462" stroke="transparent" points="405,-10 405,-30 425,-30 425,-10 405,-10"/>
<text text-anchor="start" x="428.6732" y="-15.4" font-family="sans-serif" font-size="14.00" fill="#000000"> &#160;Providers</text>
<polygon fill="#fb8072" stroke="transparent" points="501,-10 501,-30 521,-30 521,-10 501,-10"/>
<text text-anchor="start" x="524.7258" y="-15.4" font-family="sans-serif" font-size="14.00" fill="#000000"> &#160;Exports</text>
<g id="clust1" class="cluster">
<title>cluster_LayoutModule</title>
<polygon fill="none" stroke="#000000" stroke-dasharray="1,5" points="8,-70 8,-268 678,-268 678,-70 8,-70"/>
</g>
<g id="clust2" class="cluster">
<title>cluster_LayoutModule_declarations</title>
<polygon fill="none" stroke="#000000" points="244,-78 244,-130 670,-130 670,-78 244,-78"/>
</g>
<g id="clust6" class="cluster">
<title>cluster_LayoutModule_imports</title>
<polygon fill="none" stroke="#000000" points="16,-78 16,-130 236,-130 236,-78 16,-78"/>
</g>
<g id="clust7" class="cluster">
<title>cluster_LayoutModule_exports</title>
<polygon fill="none" stroke="#000000" points="106,-208 106,-260 542,-260 542,-208 106,-208"/>
</g>
<!-- NavigationComponent -->
<g id="node1" class="node">
<title>NavigationComponent</title>
<polygon fill="#ffffb3" stroke="#000000" points="661.5407,-122 518.4593,-122 518.4593,-86 661.5407,-86 661.5407,-122"/>
<text text-anchor="middle" x="590" y="-99.8" font-family="Times,serif" font-size="14.00" fill="#000000">NavigationComponent</text>
</g>
<!-- LayoutModule -->
<g id="node4" class="node">
<title>LayoutModule</title>
<polygon fill="#8dd3c7" stroke="#000000" points="357.7078,-187 354.7078,-191 333.7078,-191 330.7078,-187 258.2922,-187 258.2922,-151 357.7078,-151 357.7078,-187"/>
<text text-anchor="middle" x="308" y="-164.8" font-family="Times,serif" font-size="14.00" fill="#000000">LayoutModule</text>
</g>
<!-- NavigationComponent&#45;&gt;LayoutModule -->
<g id="edge1" class="edge">
<title>NavigationComponent&#45;&gt;LayoutModule</title>
<path fill="none" stroke="#000000" d="M525.875,-122.1061C525.875,-141.3391 525.875,-169 525.875,-169 525.875,-169 367.7118,-169 367.7118,-169"/>
<polygon fill="#000000" stroke="#000000" points="367.7119,-165.5001 357.7118,-169 367.7118,-172.5001 367.7119,-165.5001"/>
</g>
<!-- FooterComponent -->
<g id="node2" class="node">
<title>FooterComponent</title>
<polygon fill="#ffffb3" stroke="#000000" points="499.8809,-122 382.1191,-122 382.1191,-86 499.8809,-86 499.8809,-122"/>
<text text-anchor="middle" x="441" y="-99.8" font-family="Times,serif" font-size="14.00" fill="#000000">FooterComponent</text>
</g>
<!-- FooterComponent&#45;&gt;LayoutModule -->
<g id="edge2" class="edge">
<title>FooterComponent&#45;&gt;LayoutModule</title>
<path fill="none" stroke="#000000" d="M462.1203,-122.027C462.1203,-138.3976 462.1203,-160 462.1203,-160 462.1203,-160 367.613,-160 367.613,-160"/>
<polygon fill="#000000" stroke="#000000" points="367.613,-156.5001 357.613,-160 367.6129,-163.5001 367.613,-156.5001"/>
</g>
<!-- BodyComponent -->
<g id="node3" class="node">
<title>BodyComponent</title>
<polygon fill="#ffffb3" stroke="#000000" points="363.6695,-122 252.3305,-122 252.3305,-86 363.6695,-86 363.6695,-122"/>
<text text-anchor="middle" x="308" y="-99.8" font-family="Times,serif" font-size="14.00" fill="#000000">BodyComponent</text>
</g>
<!-- BodyComponent&#45;&gt;LayoutModule -->
<g id="edge3" class="edge">
<title>BodyComponent&#45;&gt;LayoutModule</title>
<path fill="none" stroke="#000000" d="M308,-122.1061C308,-122.1061 308,-140.991 308,-140.991"/>
<polygon fill="#000000" stroke="#000000" points="304.5001,-140.9909 308,-150.991 311.5001,-140.991 304.5001,-140.9909"/>
</g>
<!-- NavigationComponent  -->
<g id="node7" class="node">
<title>NavigationComponent </title>
<polygon fill="#fb8072" stroke="#000000" points="533.54,-252 386.46,-252 386.46,-216 533.54,-216 533.54,-252"/>
<text text-anchor="middle" x="460" y="-229.8" font-family="Times,serif" font-size="14.00" fill="#000000">NavigationComponent </text>
</g>
<!-- LayoutModule&#45;&gt;NavigationComponent  -->
<g id="edge6" class="edge">
<title>LayoutModule&#45;&gt;NavigationComponent </title>
<path fill="none" stroke="#000000" stroke-dasharray="5,2" d="M357.6591,-178C389.2691,-178 424.3001,-178 424.3001,-178 424.3001,-178 424.3001,-205.973 424.3001,-205.973"/>
<polygon fill="#000000" stroke="#000000" points="420.8002,-205.973 424.3001,-215.973 427.8002,-205.973 420.8002,-205.973"/>
</g>
<!-- FooterComponent  -->
<g id="node8" class="node">
<title>FooterComponent </title>
<polygon fill="#fb8072" stroke="#000000" points="368.8814,-252 247.1186,-252 247.1186,-216 368.8814,-216 368.8814,-252"/>
<text text-anchor="middle" x="308" y="-229.8" font-family="Times,serif" font-size="14.00" fill="#000000">FooterComponent </text>
</g>
<!-- LayoutModule&#45;&gt;FooterComponent  -->
<g id="edge7" class="edge">
<title>LayoutModule&#45;&gt;FooterComponent </title>
<path fill="none" stroke="#000000" stroke-dasharray="5,2" d="M308,-187.1061C308,-187.1061 308,-205.991 308,-205.991"/>
<polygon fill="#000000" stroke="#000000" points="304.5001,-205.9909 308,-215.991 311.5001,-205.991 304.5001,-205.9909"/>
</g>
<!-- BodyComponent  -->
<g id="node9" class="node">
<title>BodyComponent </title>
<polygon fill="#fb8072" stroke="#000000" points="229.6691,-252 114.3309,-252 114.3309,-216 229.6691,-216 229.6691,-252"/>
<text text-anchor="middle" x="172" y="-229.8" font-family="Times,serif" font-size="14.00" fill="#000000">BodyComponent </text>
</g>
<!-- LayoutModule&#45;&gt;BodyComponent  -->
<g id="edge8" class="edge">
<title>LayoutModule&#45;&gt;BodyComponent </title>
<path fill="none" stroke="#000000" stroke-dasharray="5,2" d="M258.3569,-178C218.5896,-178 169.4088,-178 169.4088,-178 169.4088,-178 169.4088,-205.973 169.4088,-205.973"/>
<polygon fill="#000000" stroke="#000000" points="165.9089,-205.973 169.4088,-215.973 172.9089,-205.973 165.9089,-205.973"/>
</g>
<!-- AuthModule -->
<g id="node5" class="node">
<title>AuthModule</title>
<polygon fill="#8dd3c7" stroke="#000000" points="227.5482,-122 224.5482,-126 203.5482,-126 200.5482,-122 140.4518,-122 140.4518,-86 227.5482,-86 227.5482,-122"/>
<text text-anchor="middle" x="184" y="-99.8" font-family="Times,serif" font-size="14.00" fill="#000000">AuthModule</text>
</g>
<!-- AuthModule&#45;&gt;LayoutModule -->
<g id="edge4" class="edge">
<title>AuthModule&#45;&gt;LayoutModule</title>
<path fill="none" stroke="#000000" d="M198.5912,-122.027C198.5912,-138.3976 198.5912,-160 198.5912,-160 198.5912,-160 248.0981,-160 248.0981,-160"/>
<polygon fill="#000000" stroke="#000000" points="248.0981,-163.5001 258.0981,-160 248.0981,-156.5001 248.0981,-163.5001"/>
</g>
<!-- SharedModule -->
<g id="node6" class="node">
<title>SharedModule</title>
<polygon fill="#8dd3c7" stroke="#000000" points="122.4231,-122 119.4231,-126 98.4231,-126 95.4231,-122 23.5769,-122 23.5769,-86 122.4231,-86 122.4231,-122"/>
<text text-anchor="middle" x="73" y="-99.8" font-family="Times,serif" font-size="14.00" fill="#000000">SharedModule</text>
</g>
<!-- SharedModule&#45;&gt;LayoutModule -->
<g id="edge5" class="edge">
<title>SharedModule&#45;&gt;LayoutModule</title>
<path fill="none" stroke="#000000" d="M118.3133,-122.1061C118.3133,-141.3391 118.3133,-169 118.3133,-169 118.3133,-169 248.1621,-169 248.1621,-169"/>
<polygon fill="#000000" stroke="#000000" points="248.1621,-172.5001 258.1621,-169 248.162,-165.5001 248.1621,-172.5001"/>
</g>
</g>
</svg>
